<svg xmlns="http://www.w3.org/2000/svg" viewBox="0 0 1200 630" width="1200" height="630">
  <defs>
    <linearGradient id="sky" x1="0" y1="0" x2="0" y2="1">
      <stop offset="0" stop-color="#a8e0f0"/>
      <stop offset="0.6" stop-color="#c9ecf2"/>
      <stop offset="1" stop-color="#fdfcf5"/>
    </linearGradient>
    <linearGradient id="grn" x1="0" y1="0" x2="1" y2="1">
      <stop offset="0" stop-color="#5cb85c"/>
      <stop offset="1" stop-color="#2e7d32"/>
    </linearGradient>
  </defs>
  <rect width="1200" height="630" fill="url(#sky)"/>
  <circle cx="980" cy="140" r="70" fill="#fff4cf"/>
  <circle cx="980" cy="140" r="110" fill="#fff4cf" opacity="0.25"/>
  <!-- grass bottom -->
  <path d="M0 560 Q60 500 120 555 Q180 495 240 555 Q300 500 360 555 Q420 495 480 555 Q540 500 600 555 Q660 495 720 555 Q780 500 840 555 Q900 495 960 555 Q1020 500 1080 555 Q1140 500 1200 555 V630 H0 Z" fill="#5cb85c"/>
  <path d="M0 590 Q60 545 120 590 Q180 540 240 590 Q300 545 360 590 Q420 540 480 590 Q540 545 600 590 Q660 540 720 590 Q780 545 840 590 Q900 540 960 590 Q1020 545 1080 590 Q1140 545 1200 590 V630 H0 Z" fill="#2e7d32"/>
  <!-- text -->
  <text x="600" y="250" text-anchor="middle" font-family="Georgia, serif" font-size="42" font-weight="bold" fill="#2e7d32" letter-spacing="4">DỰ ÁN TÌNH NGUYỆN</text>
  <text x="600" y="360" text-anchor="middle" font-family="Georgia, serif" font-style="italic" font-size="96" font-weight="bold" fill="#1b5e20">Trăng sáng Langbiang</text>
  <text x="600" y="420" text-anchor="middle" font-family="Arial, sans-serif" font-size="30" font-weight="bold" fill="#f57f17">TẠI PHƯỜNG LANGBIANG - ĐÀ LẠT, LÂM ĐỒNG</text>
  <text x="600" y="470" text-anchor="middle" font-family="Georgia, serif" font-style="italic" font-size="30" fill="#2e7d32">Ngày 19 - 20 tháng 9 năm 2026</text>
</svg>
